{"title":"SATAN - Yo Yo Honey Singh - Full Song HD - S A T A N - 12 12 12","uid":7949950,"size":121859207,"categoryP":"video","categoryS":"music_videos","magnet":"?xt=urn:btih:2ea57d94243b4afd3f7146f80c9222da385ad801&amp;dn=SATAN+-+Yo+Yo+Honey+Singh+-+Full+Song+HD+-+S+A+T+A+N+-+12+12+12+&amp;tr=udp%3A%2F%2Ftracker.openbittorrent.com%3A80&amp;tr=udp%3A%2F%2Fopen.demonii.com%3A1337&amp;tr=udp%3A%2F%2Ftracker.coppersurfer.tk%3A6969&amp;tr=udp%3A%2F%2Fexodus.desync.com%3A6969","seeders":1,"leechers":0,"uploader":"praneet_gupta777","files":2,"time":1356242370,"description":"SATAN - Yo Yo Honey Singh - Full Song HD - S A T A N - 12 12 12 720p [PKG]\n\nSmall In Size But Best IN QUALITY....\nUnbeatable QUALITY..\n &lt;a href=&quot;\nhttps://kastatic.com/i2/u/2245526/ekgo0IRhcy.png&quot; rel=&quot;nofollow&quot; target=&quot;_NEW&quot;&gt;\nhttps://kastatic.com/i2/u/2245526/ekgo0IRhcy.png&lt;/a&gt; &lt;a href=&quot;\nhttps://kastatic.com/i2/u/2245526/GHy8SzEkYl.png&quot; rel=&quot;nofollow&quot; target=&quot;_NEW&quot;&gt;\nhttps://kastatic.com/i2/u/2245526/GHy8SzEkYl.png&lt;/a&gt; &lt;a href=&quot;\nhttps://kastatic.com/i2/u/2245526/w365L2N9Fq.png&quot; rel=&quot;nofollow&quot; target=&quot;_NEW&quot;&gt;\nhttps://kastatic.com/i2/u/2245526/w365L2N9Fq.png&lt;/a&gt; &lt;a href=&quot;\nhttps://kastatic.com/i2/u/2245526/PUgLblZzW3.png&quot; rel=&quot;nofollow&quot; target=&quot;_NEW&quot;&gt;\nhttps://kastatic.com/i2/u/2245526/PUgLblZzW3.png&lt;/a&gt; &lt;a href=&quot;\nhttps://kastatic.com/i2/u/2245526/t9VkmM1826.png&quot; rel=&quot;nofollow&quot; target=&quot;_NEW&quot;&gt;\nhttps://kastatic.com/i2/u/2245526/t9VkmM1826.png&lt;/a&gt;\n\n\nGeneral\nComplete name : D:DownloadsSATAN - Yo Yo Honey Singh - Full Song HD - S.A.T.A.N - 12.12.12SATAN - Yo Yo Honey Singh - Full Song HD - S.A.T.A.N - 12.12.12.mp4\nFormat : MPEG-4\nFormat profile : Base Media / Version 2\nCodec ID : mp42\nFile size : 116 MiB\nDuration : 7mn 29s\nOverall bit rate mode : Variable\nOverall bit rate : 2 168 Kbps\nEncoded date : UTC 2012-12-10 09:22:21\nTagged date : UTC 2012-12-10 09:22:21\ngsst : 0\ngstd : 449746\ngssd : B4A7DA981HH1356195580213979\ngshh :\n\nVideo\nID : 1\nFormat : AVC\nFormat/Info : Advanced Video Codec\nFormat profile : &lt;a class=&quot;__cf_email__&quot; href=&quot;/cdn-cgi/l/email-protection&quot; data-cfemail=&quot;2b63424c436b6718051a&quot;&gt;[email&amp;#160;protected]&lt;/a&gt;&lt;script cf-hash='f9e31' type=&quot;text/javascript&quot;&gt;\n/* &lt;![CDATA[ */!function(){try{var t=&quot;currentScript&quot;in document?document.currentScript:function(){for(var t=document.getElementsByTagName(&quot;script&quot;),e=t.length;e--;)if(t[e].getAttribute(&quot;cf-hash&quot;))return t[e]}();if(t&amp;&amp;t.previousSibling){var e,r,n,i,c=t.previousSibling,a=c.getAttribute(&quot;data-cfemail&quot;);if(a){for(e=&quot;&quot;,r=parseInt(a.substr(0,2),16),n=2;a.length-n;n+=2)i=parseInt(a.substr(n,2),16)^r,e+=String.fromCharCode(i);e=document.createTextNode(e),c.parentNode.replaceChild(e,c)}}}catch(u){}}();/* ]]&gt; */&lt;/script&gt;\nFormat settings, CABAC : Yes\nFormat settings, ReFrames : 1 frame\nFormat settings, GOP : M=1, N=60\nCodec ID : avc1\nCodec ID/Info : Advanced Video Coding\nDuration : 7mn 29s\nBit rate : 1 974 Kbps\nMaximum bit rate : 6 953 Kbps\nWidth : 1 280 pixels\nHeight : 720 pixels\nDisplay aspect ratio : 16:9\nFrame rate mode : Constant\nFrame rate : 25.000 fps\nColor space : YUV\nChroma subsampling : 4:2:0\nBit depth : 8 bits\nScan type : Progressive\nBits/(Pixel*Frame) : 0.086\nStream size : 106 MiB (91%)\nTagged date : UTC 2012-12-10 09:22:21\n\nAudio\nID : 2\nFormat : AAC\nFormat/Info : Advanced Audio Codec\nFormat profile : LC\nCodec ID : 40\nDuration : 7mn 29s\nBit rate mode : Variable\nBit rate : 192 Kbps\nMaximum bit rate : 202 Kbps\nChannel(s) : 2 channels\nChannel positions : Front: L R\nSampling rate : 44.1 KHz\nCompression mode : Lossy\nStream size : 10.3 MiB (9%)","torrent":{"xt":"urn:btih:2ea57d94243b4afd3f7146f80c9222da385ad801","amp;dn":"SATAN+-+Yo+Yo+Honey+Singh+-+Full+Song+HD+-+S+A+T+A+N+-+12+12+12+","amp;tr":["udp%3A%2F%2Ftracker.openbittorrent.com%3A80","udp%3A%2F%2Fopen.demonii.com%3A1337","udp%3A%2F%2Ftracker.coppersurfer.tk%3A6969","udp%3A%2F%2Fexodus.desync.com%3A6969"],"infoHash":"2ea57d94243b4afd3f7146f80c9222da385ad801","infoHashBuffer":{"type":"Buffer","data":[46,165,125,148,36,59,74,253,63,113,70,248,12,146,34,218,56,90,216,1]},"announce":[],"urlList":[]}}